<svg xmlns="http://www.w3.org/2000/svg" width="1000" height="64" viewBox="0 0 1000 64" font-family="'Courier New', Courier, monospace"><defs>
<filter id="glow" x="-30%" y="-30%" width="160%" height="160%"><feGaussianBlur stdDeviation="3" result="b"/><feMerge><feMergeNode in="b"/><feMergeNode in="SourceGraphic"/></feMerge></filter>
<linearGradient id="gg" x1="0" y1="0" x2="1" y2="0"><stop offset="0" stop-color="#f0c75e"/><stop offset=".6" stop-color="#c9a227"/><stop offset="1" stop-color="#ff9f1c"/></linearGradient>
<radialGradient id="rec" cx=".35" cy=".3" r=".9"><stop offset="0" stop-color="#fbe28a"/><stop offset=".55" stop-color="#c9a227"/><stop offset="1" stop-color="#7d5f0c"/></radialGradient>
<radialGradient id="neb" cx=".8" cy=".5" r=".6"><stop offset="0" stop-color="#0b1a33"/><stop offset="1" stop-color="#05070d" stop-opacity="0"/></radialGradient>
</defs><rect width="1000" height="64" rx="8" fill="#0a0f1a"/><rect width="5" height="64" rx="2" fill="url(#gg)"/><text x="26" y="28" font-size="14" fill="#ff9f1c" letter-spacing="2">01</text><text x="26" y="48" font-size="11" fill="#6b7280" letter-spacing="3">PAYLOAD MANIFEST</text><text x="84" y="42" font-size="26" font-weight="bold" letter-spacing="3" fill="#f0c75e">THE GOLDEN RECORD</text><path d="M620,30.0 L628,36.2 L636,35.9 L644,37.0 L652,34.3 L660,33.3 L668,29.0 L676,22.6 L684,26.7 L692,24.9 L700,25.1 L708,28.0 L716,32.1 L724,33.8 L732,35.1 L740,39.9 L748,32.4 L756,30.9 L764,26.6 L772,25.5 L780,26.9 L788,22.1 L796,26.6 L804,30.7 L812,32.4 L820,37.8 L828,33.1 L836,35.1 L844,31.5 L852,27.9 L860,27.1 L868,23.3 L876,26.2 L884,24.4 L892,29.3 L900,32.0 L908,35.7 L916,39.4 L924,35.4 L932,33.3 L940,29.9" fill="none" stroke="#5fd0e0" stroke-width="1.2" opacity=".35"/><path d="M620,30.0 L628,36.2 L636,35.9 L644,37.0 L652,34.3 L660,33.3 L668,29.0 L676,22.6 L684,26.7 L692,24.9 L700,25.1 L708,28.0 L716,32.1 L724,33.8 L732,35.1 L740,39.9 L748,32.4 L756,30.9 L764,26.6 L772,25.5 L780,26.9 L788,22.1 L796,26.6 L804,30.7 L812,32.4 L820,37.8 L828,33.1 L836,35.1 L844,31.5 L852,27.9 L860,27.1 L868,23.3 L876,26.2 L884,24.4 L892,29.3 L900,32.0 L908,35.7 L916,39.4 L924,35.4 L932,33.3 L940,29.9" fill="none" stroke="#5fd0e0" stroke-width="2" stroke-dasharray="40 700" filter="url(#glow)"><animate attributeName="stroke-dashoffset" from="740" to="0" dur="3.5s" repeatCount="indefinite"/></path><circle cx="970" cy="32" r="5" fill="#5fd0e0"><animate attributeName="r" values="4;7;4" dur="2s" repeatCount="indefinite"/><animate attributeName="opacity" values="1;.3;1" dur="2s" repeatCount="indefinite"/></circle></svg>