<svg xmlns="http://www.w3.org/2000/svg" width="1000" height="64" viewBox="0 0 1000 64" font-family="'Courier New', Courier, monospace"><defs>
<filter id="glow" x="-30%" y="-30%" width="160%" height="160%"><feGaussianBlur stdDeviation="3" result="b"/><feMerge><feMergeNode in="b"/><feMergeNode in="SourceGraphic"/></feMerge></filter>
<linearGradient id="gg" x1="0" y1="0" x2="1" y2="0"><stop offset="0" stop-color="#f0c75e"/><stop offset=".6" stop-color="#c9a227"/><stop offset="1" stop-color="#ff9f1c"/></linearGradient>
<radialGradient id="rec" cx=".35" cy=".3" r=".9"><stop offset="0" stop-color="#fbe28a"/><stop offset=".55" stop-color="#c9a227"/><stop offset="1" stop-color="#7d5f0c"/></radialGradient>
<radialGradient id="neb" cx=".8" cy=".5" r=".6"><stop offset="0" stop-color="#0b1a33"/><stop offset="1" stop-color="#05070d" stop-opacity="0"/></radialGradient>
</defs><rect width="1000" height="64" rx="8" fill="#0a0f1a"/><rect width="5" height="64" rx="2" fill="url(#gg)"/><text x="26" y="28" font-size="14" fill="#ff9f1c" letter-spacing="2">09</text><text x="26" y="48" font-size="11" fill="#6b7280" letter-spacing="3">OPEN FREQUENCIES</text><text x="84" y="42" font-size="26" font-weight="bold" letter-spacing="3" fill="#f0c75e">COMMS CHANNELS</text><path d="M620,30.0 L628,34.2 L636,33.3 L644,41.9 L652,32.5 L660,33.4 L668,28.8 L676,26.3 L684,24.6 L692,20.3 L700,27.7 L708,28.1 L716,32.0 L724,36.6 L732,36.4 L740,35.8 L748,32.4 L756,30.4 L764,27.5 L772,19.4 L780,24.2 L788,20.5 L796,27.8 L804,30.9 L812,32.1 L820,36.8 L828,36.2 L836,38.2 L844,31.5 L852,28.6 L860,27.0 L868,23.5 L876,25.9 L884,22.6 L892,29.4 L900,34.7 L908,35.9 L916,35.4 L924,34.3 L932,34.6 L940,30.0" fill="none" stroke="#5fd0e0" stroke-width="1.2" opacity=".35"/><path d="M620,30.0 L628,34.2 L636,33.3 L644,41.9 L652,32.5 L660,33.4 L668,28.8 L676,26.3 L684,24.6 L692,20.3 L700,27.7 L708,28.1 L716,32.0 L724,36.6 L732,36.4 L740,35.8 L748,32.4 L756,30.4 L764,27.5 L772,19.4 L780,24.2 L788,20.5 L796,27.8 L804,30.9 L812,32.1 L820,36.8 L828,36.2 L836,38.2 L844,31.5 L852,28.6 L860,27.0 L868,23.5 L876,25.9 L884,22.6 L892,29.4 L900,34.7 L908,35.9 L916,35.4 L924,34.3 L932,34.6 L940,30.0" fill="none" stroke="#5fd0e0" stroke-width="2" stroke-dasharray="40 700" filter="url(#glow)"><animate attributeName="stroke-dashoffset" from="740" to="0" dur="3.5s" repeatCount="indefinite"/></path><circle cx="970" cy="32" r="5" fill="#5fd0e0"><animate attributeName="r" values="4;7;4" dur="2s" repeatCount="indefinite"/><animate attributeName="opacity" values="1;.3;1" dur="2s" repeatCount="indefinite"/></circle></svg>